<?xml version="1.0" standalone="no"?>
<!DOCTYPE svg PUBLIC "-//W3C//DTD SVG 20010904//EN"
 "http://www.w3.org/TR/2001/REC-SVG-20010904/DTD/svg10.dtd">
<svg version="1.0" xmlns="http://www.w3.org/2000/svg"
 width="700.000000pt" height="700.000000pt" viewBox="0 0 700.000000 700.000000"
 preserveAspectRatio="xMidYMid meet">
<metadata>
Created by potrace 1.14, written by Peter Selinger 2001-2017
</metadata>
<g transform="translate(0.000000,700.000000) scale(0.100000,-0.100000)"
fill="#000000" stroke="none">
<path d="M3317 6924 c-1 -1 -56 -5 -122 -9 -66 -3 -133 -8 -150 -10 -16 -2
-57 -7 -90 -10 -33 -3 -73 -8 -90 -10 -16 -3 -48 -7 -70 -10 -22 -3 -65 -10
-95 -15 -30 -5 -71 -12 -90 -15 -219 -37 -644 -158 -685 -196 -5 -5 -15 -9
-22 -9 -14 0 -248 -114 -323 -158 -477 -275 -876 -694 -1127 -1183 -32 -63
-67 -134 -77 -159 -10 -25 -27 -65 -38 -89 -65 -147 -162 -507 -192 -716 -4
-22 -11 -65 -16 -95 -5 -30 -12 -77 -15 -105 -3 -27 -7 -66 -10 -85 -38 -270
-38 -793 0 -1095 3 -22 7 -60 10 -85 3 -25 10 -72 15 -105 5 -33 12 -78 16
-100 3 -22 17 -94 31 -160 13 -66 26 -130 29 -141 2 -12 16 -62 30 -110 15
-49 28 -98 31 -109 3 -11 8 -29 13 -40 4 -11 25 -65 45 -120 108 -289 298
-605 514 -855 114 -130 285 -294 400 -380 18 -14 38 -30 44 -35 26 -23 176
-124 249 -168 93 -56 262 -142 374 -190 174 -75 422 -149 629 -187 28 -5 61
-11 75 -14 155 -30 401 -61 585 -72 204 -13 608 -7 751 11 16 2 56 6 89 9 93
10 148 17 175 21 14 3 41 7 60 10 445 70 802 186 1115 364 39 22 86 49 105 60
58 32 259 178 349 254 378 318 675 740 849 1207 43 115 102 313 117 393 3 12
12 56 20 97 8 41 17 86 20 100 7 32 22 132 30 190 3 25 8 52 10 60 2 8 7 47
10 85 4 39 9 84 11 100 32 302 17 884 -30 1145 -2 14 -7 48 -11 75 -31 239
-130 620 -205 790 -10 22 -28 65 -41 95 -37 88 -126 256 -191 358 -186 296
-417 549 -708 775 -185 144 -454 294 -710 395 -302 119 -766 211 -1205 238
-104 6 -483 13 -488 8z m-1207 -2305 c31 -9 353 -266 580 -462 14 -12 77 -65
140 -116 164 -135 222 -201 273 -312 41 -89 56 -254 33 -362 -17 -76 -79 -193
-138 -258 -19 -22 -171 -152 -339 -291 -24 -20 -145 -121 -269 -224 -123 -103
-242 -195 -265 -205 -74 -34 -156 -21 -223 37 -52 44 -74 92 -74 164 -1 97 16
118 280 337 130 109 239 200 242 203 3 3 30 25 60 50 30 25 60 49 66 55 6 5
54 46 107 89 98 81 127 120 127 174 0 58 -20 90 -98 154 -42 34 -88 73 -102
85 -14 12 -70 59 -126 105 -546 451 -551 456 -557 550 -5 64 11 112 51 159 59
69 144 94 232 68z m2901 -1820 c114 -25 183 -142 157 -265 -14 -65 -84 -136
-151 -152 -34 -9 -230 -12 -711 -12 -580 1 -670 3 -703 16 -47 20 -78 47 -111
99 -48 76 -29 198 43 265 62 58 50 57 770 58 416 1 677 -3 706 -9z"/>
</g>
</svg>
